<?xml version="1.0" encoding="iso-8859-1"?>
<!-- Uploaded to: SVG Repo, www.svgrepo.com, Generator: SVG Repo Mixer Tools -->
<svg fill="#000000" version="1.1" id="Layer_1" xmlns="http://www.w3.org/2000/svg" xmlns:xlink="http://www.w3.org/1999/xlink" 
	 viewBox="0 0 491.52 491.52" xml:space="preserve">
<g>
	<g>
		<g>
			<rect x="81.92" y="184.32" width="122.88" height="143.36"/>
			<rect x="245.76" y="163.84" width="40.96" height="40.96"/>
			<rect x="307.2" y="163.84" width="40.96" height="40.96"/>
			<rect x="368.64" y="163.84" width="40.96" height="40.96"/>
			<rect x="245.76" y="225.28" width="40.96" height="40.96"/>
			<rect x="307.2" y="225.28" width="40.96" height="40.96"/>
			<rect x="368.64" y="225.28" width="40.96" height="40.96"/>
			<rect x="245.76" y="286.72" width="40.96" height="40.96"/>
			<rect x="307.2" y="286.72" width="40.96" height="40.96"/>
			<rect x="368.64" y="286.72" width="40.96" height="40.96"/>
			<path d="M471.04,102.4h-40.96V20.48C430.08,9.169,420.911,0,409.6,0H245.76c-11.311,0-20.48,9.169-20.48,20.48v81.92h-81.92
				V61.44h40.96V0H61.44v61.44h40.96v40.96H20.48C9.169,102.4,0,111.569,0,122.88v266.24c0,11.311,9.169,20.48,20.48,20.48h20.48
				v61.44c0,11.311,9.169,20.48,20.48,20.48h368.64c11.311,0,20.48-9.169,20.48-20.48V409.6h20.48c11.311,0,20.48-9.169,20.48-20.48
				V122.88C491.52,111.569,482.351,102.4,471.04,102.4z M409.6,450.56H81.92V409.6H409.6V450.56z M450.56,368.64h-20.48H61.44H40.96
				V143.36h204.8c11.311,0,20.48-9.169,20.48-20.48V40.96h122.88v81.92c0,11.311,9.169,20.48,20.48,20.48h40.96V368.64z"/>
		</g>
	</g>
</g>
</svg>